<svg xmlns="http://www.w3.org/2000/svg" width="53" height="54" viewBox="0 0 53 54">
    <path fill="#000" fill-rule="evenodd" d="M21 25.228a1 1 0 0 0 1-1V20.57c0-.149-.012-.296-.022-.442l.308.308a.997.997 0 0 0 1.414 0l.324-.324c-.011.152-.023.304-.023.459v3.658a1 1 0 0 0 1 1h3.658a6.349 6.349 0 0 0 6.342-6.341v-3.659a1 1 0 0 0-1-1h-3.658c-.828 0-1.617.164-2.343.454a6.339 6.339 0 0 0-1.713-5.802L23.7 6.294a.999.999 0 0 0-1.414 0L19.698 8.88a6.337 6.337 0 0 0-1.714 5.795 6.29 6.29 0 0 0-2.326-.448H12a1 1 0 0 0-1 1v3.659a6.349 6.349 0 0 0 6.342 6.341H21v.001zm12-9v2.659a4.346 4.346 0 0 1-4.342 4.341H26V20.57a4.347 4.347 0 0 1 4.342-4.342H33zm-11.888-5.934l1.88-1.88 1.88 1.88a4.348 4.348 0 0 1 0 6.14l-1.88 1.88-1.88-1.88a4.348 4.348 0 0 1 0-6.14zm20.403 19.904l3.451-12.94A1.02 1.02 0 0 0 45 17c0-1.103-.897-2-2-2h-2c-.365 0-.705.104-1 .275V1a1 1 0 0 0-1-1H8.006l-.015.003L7.976 0H1a1 1 0 0 0-1 1v46c0 .399.238.761.605.919l6.976 3c.127.054.261.081.395.081l.018-.002.012.002H23.32a18.651 18.651 0 0 0 9.992 2.906c10.358 0 18.786-8.427 18.786-18.785v-.104c0-2.985-6.174-4.277-10.583-4.819zM26 33c-1.654 0-3 1.346-3 3h2a1.001 1.001 0 0 1 2 0h2c0-1.654-1.346-3-3-3zm8 1c-1.654 0-3 1.346-3 3h2a1.001 1.001 0 0 1 2 0h2c0-1.654-1.346-3-3-3zm7-17h1.965l-3.681 13.805v.002l-.001.003-.596 2.289a1 1 0 0 0 1.935.504l.377-1.448c6.826.805 9.099 2.385 9.099 2.863 0 .984-5.711 3.293-16.786 3.293-11.075 0-16.786-2.309-16.786-3.293 0-.985 5.711-3.294 16.786-3.294.592 0 1.159.023 1.735.038l-.187.744a1 1 0 1 0 1.94.488l.49-1.946 3.677-13.79A1.02 1.02 0 0 0 41 17zM6.976 48.481L2 46.341V2h4.976v46.481zM13 18.887v-2.659h2.658A4.347 4.347 0 0 1 20 20.57v2.658h-2.658A4.347 4.347 0 0 1 13 18.887zM20.664 49H9.006V2H38v18.619l-2.438 9.143a71.973 71.973 0 0 0-2.25-.038c-6.498 0-18.786 1.106-18.786 5.294v.104c0 .66.036 1.312.103 1.954.02.191.061.377.087.567.06.448.12.896.212 1.333.052.249.128.489.189.735.093.368.18.737.294 1.096.091.286.205.562.309.842.113.304.22.612.348.908.131.303.283.596.43.892.129.26.253.523.394.776.167.301.352.59.535.881.148.235.294.472.452.7.194.279.401.547.61.816.178.229.356.457.544.677.207.242.424.476.644.709.222.235.447.464.681.687.107.098.199.208.306.305zm12.649 2.906a16.684 16.684 0 0 1-9.252-2.793c-.127-.084-.249-.174-.373-.261-.286-.201-.567-.41-.84-.628-.099-.079-.201-.156-.298-.238-.356-.298-.7-.61-1.029-.936-.061-.061-.12-.123-.18-.185a16.551 16.551 0 0 1-.935-1.029l-.054-.063a16.698 16.698 0 0 1-1.006-1.362 16.818 16.818 0 0 1-1.438-2.643l-.099-.231a16.389 16.389 0 0 1-.507-1.382c-.019-.059-.034-.12-.052-.179-.13-.427-.241-.863-.336-1.304-.019-.088-.041-.175-.059-.264-.046-.229-.07-.464-.107-.696 3.84 1.994 11.774 2.597 16.564 2.597 4.791 0 12.724-.603 16.564-2.597-1.252 8.027-8.191 14.194-16.563 14.194z"/>
</svg>
