<svg xmlns="http://www.w3.org/2000/svg" viewBox="0 0 272.88 123.08"><defs><style>.cls-1{fill:#ffbf00;}.cls-2{fill:#e87a11;}.cls-3{fill:#fff;}.cls-4{fill:red;}</style></defs><title>Asset 6</title><g id="Layer_2" data-name="Layer 2"><g id="Layer_1-2" data-name="Layer 1"><path class="cls-1" d="M77.7,40.13q.52.63,1.06,1.25C78.57,40.82,78.12,40.53,77.7,40.13Z"/><path class="cls-1" d="M82.44,25.35a21.94,21.94,0,0,0-.88,5.43C81.78,29,82.07,27.18,82.44,25.35Z"/><path class="cls-1" d="M66.81,21a29.76,29.76,0,0,0-2.55,1.81,14.46,14.46,0,0,0-2.45,1.38,21,21,0,0,1-6.41,3.21c-2.55.9-5.07,1.74-7.54,2.86-4.56,2.07-9.24,4.05-12.6,7.91a22.56,22.56,0,0,0-5.38,12.23A11.8,11.8,0,0,0,30,54.29q.19.86.39,1.71a4.48,4.48,0,0,1,.21,1c0,.26-.16.48-.17.7a8.45,8.45,0,0,0,1,3.32A19.56,19.56,0,0,0,33,63.86c2.81,4.28,7,6.78,11.4,9.11a74.3,74.3,0,0,0,6.88,3.39,61.7,61.7,0,0,0,7.54,2.44c5.16,1.34,10.46,2.45,15.73,3.27a63.8,63.8,0,0,0,8,.79,31.12,31.12,0,0,1,4.19.09q1.91.32,3.84.51a78.41,78.41,0,0,0,16.62-.29,35.41,35.41,0,0,0,4.3-.71,23.3,23.3,0,0,1,3.68-.38c2.62-.2,5.22.25,7.86,0a38,38,0,0,0,7.78-1.7c.39-.13,1-.37,1.51-.52a10.73,10.73,0,0,1,2.23-.28c.62-.05,1.27-.17,1.89-.17a15.53,15.53,0,0,1,1.76.43,14,14,0,0,0,2.17-.18,16.91,16.91,0,0,1,2.13.2,22.56,22.56,0,0,0,3.59,0,63.51,63.51,0,0,0,8.06-1.34c5.51-1.14,11.15-1.08,16.65-2.35,2.68-.62,5.38-1,8.07-1.64,1.35-.3,2.69-.65,4-1.06a32,32,0,0,1,3.5-.74c2.2-.38,4.47-.51,6.68-.84s4.58-.76,6.84-1.29a39.3,39.3,0,0,0,12.53-5c.92-.6,1.75-1.33,2.71-1.87a10.93,10.93,0,0,0,2.56-2,11.51,11.51,0,0,0,1.8-2.5,8.82,8.82,0,0,0,1.16-2.88q-.41-.06-.08-.41l.13-.31c.13-.32.25-.63.36-1a7.18,7.18,0,0,0,.41-1.62c.05-.54,0-1.07,0-1.6a15.54,15.54,0,0,0,.31-1.82c0-1.28-.25-2.69-.27-3.83,0-1.44,0-2.88,0-4.31a7.93,7.93,0,0,0-1.29-3.66,29.86,29.86,0,0,0-1.9-3.2c-.68-1-1.38-2-2-3.06a12.52,12.52,0,0,1-.76-1.62c-.09-.24-.14-.53-.25-.76a1.43,1.43,0,0,0-.65-.7c-2.16-1.52-4.28-3.05-6.58-4.36a32.71,32.71,0,0,0-3.65-1.81A15,15,0,0,0,200.63,21c-.48,0-.48,0-.94.31-.31.2-.63.35-.95.52-.55.29-1.09.6-1.63.92S194.76,24.56,194,24c-1.67-1.21,2.67-3.68,3.47-4.05a27.35,27.35,0,0,1-3.38-1.41c-.52-.26-1-.55-1.56-.8a6.17,6.17,0,0,0-1.61-.75c-.79-.08-2.3,1.4-3,1.9a13.33,13.33,0,0,1-2.85,1.69c-.76.32-1.66.85-2.42.26a1.31,1.31,0,0,1-.3-1.82,15.83,15.83,0,0,1,4.7-3.82,1.57,1.57,0,0,0-1.7-.2c-.73.23-1.46.49-2.18.75a8.22,8.22,0,0,0-2.08.88c-.52.38-1,.83-1.52,1.24-1.85,1.5-2.87,3.74-4.47,5.49-.4.43-2.08,2.52-2.73,2.27-1-.38,1.15-2.38,1.5-2.78.83-1,1.68-1.89,2.42-2.92A8.59,8.59,0,0,1,179,17.11a15.44,15.44,0,0,0-2.41.86c-.83.4-1.52,1-2.33,1.43a13.32,13.32,0,0,0-2.14.9c-.77.61-1.45,1.41-2.17,2.1l-.54.52a.75.75,0,0,1,.11.42,3.73,3.73,0,0,1-.56,1.14c-.45.73-.91,1.46-1.36,2.2a41.74,41.74,0,0,0-2.72,5.14c.67-.77,1.33-1.53,2-2.32.21-.26.41-.65.78-.57a.5.5,0,0,1,.35.61,8.65,8.65,0,0,1-1.51,2.53c-.54.85-1.1,1.7-1.64,2.55-1,1.56-1.66,3.2-2.49,4.84a4.91,4.91,0,0,1-1.36,2c-.37.21-.58,0-.92,0s-.67.33-1.08-.08c-.17.94,0,3.93-1.77,3.46-.84-.23-.46-.88-.73-1.43-.11-.24-.63-.28-.91-.54a2.65,2.65,0,0,1-.55-.9c-1.18-2.82.5-5.93.41-8.8a36.58,36.58,0,0,1,1-10.53c.91-3.45,2.68-6.39,4.39-9.48,1.6-2.88,3.25-5.86,5.77-8.05-1.59-.2-3.21-.15-4.8-.31s-3.25-.28-4.88-.3a8,8,0,0,0-2.13,0,6.86,6.86,0,0,0-1.76,1.42,30.39,30.39,0,0,0-3,3.13c-.48.56-.95,1.12-1.45,1.66a7.06,7.06,0,0,1-1.6,1.53.81.81,0,0,1-1.12-.24c-.3-.52.14-1.14.37-1.61a16.28,16.28,0,0,1,5.33-5.83c-1.91.05-3.83.12-5.74.26a11.62,11.62,0,0,0-1.57.14c-.51.11-.63.33-1,.74-.54.65-1.08,1.3-1.63,1.94a13.76,13.76,0,0,1-3,2.27c-1.12.78-1.92,2.09-3,2.77a1.94,1.94,0,0,0-.42.24,3.58,3.58,0,0,0-.34.4l-.69.79a20.66,20.66,0,0,1-1.59,1.64c-.61.55-2,.86-2-.42a8.14,8.14,0,0,1,1.54-3.37A14.32,14.32,0,0,1,134.74,9a12.44,12.44,0,0,1,3.18-2.09c.66-.3,2.89-1.34,3.36-.47.51-.43,1-.89,1.47-1.36-2.29.27-4.57.62-6.85.91a23.19,23.19,0,0,0-3.33.38l-.39,0a.35.35,0,0,1-.11.24l-.23.15c-.32.19-.74.23-1.08.44-1.1.68-1.83,1.83-2.84,2.62a10.39,10.39,0,0,0-2.58,3.45c-.8,1.47-1.7,2.9-2.55,4.34A18.19,18.19,0,0,0,121,22.79a32,32,0,0,0-1,10.79,18.41,18.41,0,0,0,.5,2.73c.16.59.6,1.34.32,1.95-.56,1.21-1.84.64-2.33-.21.25,1.32,1.85,2,2.33,3.22a1.27,1.27,0,0,1-1.49,1.7c.07,1.5-1.9,1.86-2.81.92a10.42,10.42,0,0,1-1.43-3.07,16.05,16.05,0,0,0-2.2-3.1,20.65,20.65,0,0,0,1.28,4.06c.42-.72,1.16-.28,1.31.34a1.48,1.48,0,0,1-.41,1.49,1.76,1.76,0,0,1-1.89.32c-.63-.43-.72-1.73-.84-2.43-.35-1.94-.19-4.33-1-6.13a25.16,25.16,0,0,1-1.21-2.65c-.32-1-.57-2-1-2.92a29.69,29.69,0,0,0,.09,4.43,5.68,5.68,0,0,0,.5,1.87c.2.41.79,1,.45,1.53-.58.81-1.39-.14-1.62-.68a10,10,0,0,1-.54-3.45c-1.95.47-1.35-3.27-1.31-4.31a4.32,4.32,0,0,0,0-.74l0-.37a.49.49,0,0,1-.32-.18,2.4,2.4,0,0,1-.25-1.16,20.35,20.35,0,0,1,0-2.75,41.08,41.08,0,0,1,1-6c.21-.92.44-1.84.66-2.76.11-.46.21-2.05.81-2.18a4.43,4.43,0,0,1-.69-2.72c-3.23.58-6.47,1.12-9.71,1.64a45.58,45.58,0,0,0-8.78,2c1.55.54-.4.79-.93,1.13A5,5,0,0,0,87,17a19.86,19.86,0,0,0-1.87,5.86c-.43,2.2-.8,4.43-1.16,6.64-.29,1.79-.55,3.58-.75,5.37q-.15,1.34-.26,2.68c-.06.73.08,1.83-.82,2.07.37.54,1.08,1.22,1.14,1.91,0,.34-.15.53-.22.82q-.35.24,0,.52.16.27.35.53c0-.46-.13-1.51.68-1.29.62.17.39,1.19.49,1.68s.9,1.61.73,1.93c-.38.73-1.19-.3-1.4-.63-.37.86-1.08.74-1.78.45a8.67,8.67,0,0,1-1.64-.7,14.78,14.78,0,0,1-3.3-3.43c.18.44,1.55,1.59.68,1.75s-1.41-1-1.59-1.53-.15-.93-.26-1.39-.39-.62-.5-1c-.19-.56.34-1.11.86-.64C73.49,34.84,73,30,73,25.4a38.34,38.34,0,0,1,.16-4.95C71.34,20.86,68.19,20.36,66.81,21ZM53.92,41.16c-.12.27-.29.34-.52.49s-.31.09-.52.44a5.33,5.33,0,0,0-.26.65c-.39.93-.87,1.81-1.25,2.74a5.55,5.55,0,0,1-1.22,2.19c-1.56,1.35-2.95-.53-2.78-2.08A5.61,5.61,0,0,1,48.52,43a1.56,1.56,0,0,0,.4-.73c0-.15-.15-.41,0-.55.24-.3.4,0,.42.29a20.13,20.13,0,0,1,1.9-2.12c.65-.56,1.35-.31,2.11-.15A1,1,0,0,1,53.92,41.16Zm3.6,4.76c-.25.71-1,3.45-2.13,2.1s.41-3,.45-4.37a1.29,1.29,0,0,1,1.87-1.05C58.88,43.25,57.82,45,57.51,45.92Zm135-12.4a1.34,1.34,0,0,1,2.22.52,6.11,6.11,0,0,0,.4,1.38c.29.52.8.77,1.08,1.25a1.21,1.21,0,0,1-.92,1.73,2.15,2.15,0,0,1-1.85-.91C192.7,36.67,191.54,34.52,192.48,33.52Zm-7.74.87c.24-.49,1-.82,1.4-.37.26.27.24.86.34,1.21a4.16,4.16,0,0,0,.62,1.31,20.79,20.79,0,0,0,2.32,2,1.3,1.3,0,0,1-.18,2,2,2,0,0,1-2.21-.08,5.25,5.25,0,0,1-2.3-3.81A4.18,4.18,0,0,1,184.74,34.39ZM143.29,49.81a1.67,1.67,0,0,1,2.36-.55,1.58,1.58,0,0,1,.52,1.46,4,4,0,0,0,.46,2.06,1.21,1.21,0,0,1-.45,1.59c-.66.43-1.27,0-1.79-.44C143.39,53.08,142.65,51.07,143.29,49.81Zm-13.88-5.94a2.2,2.2,0,0,1,2.19-.37c1,.42,1,1.37,1,2.33a6.6,6.6,0,0,0,.34,2.43l.15.34q0,.39.37.34c.1.1.63.27-.09.2.59,1.05,1.06,2.86-.58,3.19a2.59,2.59,0,0,1-2.35-.83c-1.27-1.35-1.53-3.55-1.65-5.31A2.6,2.6,0,0,1,129.41,43.87ZM71.36,21.24A6.31,6.31,0,0,1,71,23c-.2,1.24-.33,2.48-.47,3.72s-.26,2.36-.45,3.53c-.11.7-.13,2.47-1,2.71-1.74.5-1-4.44-.82-5.25a34.23,34.23,0,0,1,2.29-6.66C70.83,20.57,71.28,21,71.36,21.24Z"/><path class="cls-2" d="M176.16,7.23a7.34,7.34,0,0,0-2.69-1.33,5.18,5.18,0,0,0-1.66-.36c-.46.06-.07-.11-.42.21-.13.12-.17.3-.32.41-.64.47-2.22-.12-2.9-.41a4.15,4.15,0,0,0-.47-.25c-.13,0-.43.54-.52.66-.3.41-.58.83-.84,1.26a62.13,62.13,0,0,0-2.79,5.89c-1,2.07-2,4.11-2.87,6.25a37.9,37.9,0,0,0-1.88,6.77,39.41,39.41,0,0,0-.23,7.06,17.88,17.88,0,0,1,2.17-4.66,24.28,24.28,0,0,1,3.52-3.6c1.18-1.06,2.41-2.06,3.65-3.05l1.79-1.43a4.52,4.52,0,0,0,1-.78c.15-.25,0-.27.06-.56.12-.61.43-.8,1-1a4.36,4.36,0,0,0,1.93-1,16.58,16.58,0,0,1,1.67-1.14,8.21,8.21,0,0,1,2-1c1.1-.42,2.18-.87,3.27-1.32a7.07,7.07,0,0,1-1.62-2.65A8.79,8.79,0,0,0,176.16,7.23Z"/><path class="cls-2" d="M76.7,18.56a5,5,0,0,0-.28,1.4,20.31,20.31,0,0,0,.14,4,34.93,34.93,0,0,0,1.63,8.5c.41-5.77,3.34-10.41,6-15.4a.44.44,0,0,1-.69-.43c0-.32.61-.75.83-1,.37-.37.75-.72,1.09-1.09a4.33,4.33,0,0,1,.43-.42c.05,0,.28,0,.39-.11a13.83,13.83,0,0,0-4.39,1.56c-.68.41-3.36,1-3.89,1.57a1.55,1.55,0,0,1-.22.2,1.82,1.82,0,0,1-.17.24C77.22,18,76.91,18.06,76.7,18.56Z"/><path class="cls-1" d="M108.21,18.52c.41-1.63.91-3.23,1.48-4.81a1.08,1.08,0,0,1-.4-.09A47.31,47.31,0,0,0,108.21,18.52Z"/><path class="cls-2" d="M115.41,9.66a11.69,11.69,0,0,0-1.65,1,3.53,3.53,0,0,0-.75.59c0,.07-.19.69-.21.74a23.84,23.84,0,0,0-1.06,3.64,23.32,23.32,0,0,0-.45,8.69,29.79,29.79,0,0,0,2.41,8,47.53,47.53,0,0,1,1.66-8.83c1.49-5.53,4.63-10.38,8.09-14.86A12.25,12.25,0,0,0,115.41,9.66Z"/><path d="M70.62,21.05a34.23,34.23,0,0,0-2.29,6.66c-.16.81-.92,5.75.82,5.25.84-.24.86-2,1-2.71.19-1.17.32-2.35.45-3.53s.27-2.49.47-3.72a6.31,6.31,0,0,0,.31-1.76C71.28,21,70.83,20.57,70.62,21.05Z"/><path d="M76.93,17.18a.47.47,0,0,0,.78.2.58.58,0,0,0-.09-.84C77.13,16.76,76.83,17,76.93,17.18Z"/><path d="M230.6,36.71a7.3,7.3,0,0,0-.67-2.59,31.07,31.07,0,0,0-3.08-4c-.22-.28-.4-.59-.61-.86-.34-.44-.46-.4-.91-.57-.27-.1-.19,0-.45-.18a5.11,5.11,0,0,1-.57-.54c-.43-.39-.89-.76-1.36-1.11-1.56-1.16-3.27-2.12-4.91-3.15-3.61-2.28-7-4.68-10.94-6.44A54,54,0,0,0,200,14.76c-2.48-.71-5.18-1.74-7.76-1.89.57-1.29-1.48-1.58-2.31-1.64a11.63,11.63,0,0,0-4.13.63c-1.34.41-2.64.91-3.93,1.43-.19.5-.51,1.25-1,.89a4.26,4.26,0,0,1-.38-.35c-1.09.45-2.17.9-3.27,1.32a8.21,8.21,0,0,0-2,1,16.58,16.58,0,0,0-1.67,1.14,4.36,4.36,0,0,1-1.93,1c-.57.16-.88.35-1,1-.06.29.09.31-.06.56a4.52,4.52,0,0,1-1,.78l-1.79,1.43c-1.24,1-2.47,2-3.65,3.05a24.28,24.28,0,0,0-3.52,3.6,17.88,17.88,0,0,0-2.17,4.66,39.41,39.41,0,0,1,.23-7.06,37.9,37.9,0,0,1,1.88-6.77c.84-2.13,1.91-4.17,2.87-6.25a62.13,62.13,0,0,1,2.79-5.89c.26-.43.54-.86.84-1.26.09-.12.39-.64.52-.66a4.15,4.15,0,0,1,.47.25c.67.29,2.25.88,2.9.41.15-.11.19-.29.32-.41.35-.32,0-.15.42-.21a5.18,5.18,0,0,1,1.66.36,7.34,7.34,0,0,1,2.69,1.33,8.79,8.79,0,0,1,2.77,4,7.07,7.07,0,0,0,1.62,2.65l1.34-.54,0-.11c.5-1.34-1.67-3.57-2.26-4.81a7.4,7.4,0,0,0-2.75-3,11.63,11.63,0,0,0-4.1-1.53c-.37-.07-.74-.12-1.12-.17-.57-.07-.7,0-1-.38s-.36-.8-.67-1.14a3.64,3.64,0,0,0-1.21-.83A16.39,16.39,0,0,0,163.29.4C160.9.21,158.5.06,156.1,0a79.77,79.77,0,0,0-14,1.06c-5,.8-10,1.94-14.89,3.23-1.18.31-2.37.72-3.56,1s-2.31,0-3.44.14a13.26,13.26,0,0,0-6.44,2.51c-.65-1.22-3.27-.78-4.4-.74a39.24,39.24,0,0,0-5.34.59,72.41,72.41,0,0,0-10.05,2.47,31.43,31.43,0,0,0-4.49,1.84c-.7.36-1.39.9-2.11,1.21a12.06,12.06,0,0,1-2.06.34,11.61,11.61,0,0,0-3.89,1.63c-.34.22-2.59.76-3.77,1.3a.58.58,0,0,1,.09.84,1.55,1.55,0,0,0,.22-.2c.54-.58,3.22-1.16,3.89-1.57a13.83,13.83,0,0,1,4.39-1.56c-.11.08-.34.06-.39.11a4.33,4.33,0,0,0-.43.42c-.34.37-.72.73-1.09,1.09-.21.21-.8.64-.83,1a.44.44,0,0,0,.69.43c-2.64,5-5.56,9.62-6,15.4A34.93,34.93,0,0,1,76.56,24a20.31,20.31,0,0,1-.14-4,5,5,0,0,1,.28-1.4c.2-.5.52-.58.83-1a1.82,1.82,0,0,0,.17-.24.47.47,0,0,1-.78-.2c-.1-.2.2-.42.69-.64a2.76,2.76,0,0,0-2.1-.23,2.52,2.52,0,0,0-.94.62,1.1,1.1,0,0,1,.34.25c.83,1,.13,2.35-1,3a2.76,2.76,0,0,1-.77.28A38.34,38.34,0,0,0,73,25.4c0,4.61.49,9.43,3.38,13.23-.53-.47-1,.08-.86.64.11.34.41.56.5,1s.11.94.26,1.39.86,1.66,1.59,1.53-.5-1.31-.68-1.75a14.78,14.78,0,0,0,3.3,3.43,8.67,8.67,0,0,0,1.64.7c.7.28,1.41.4,1.78-.45.21.32,1,1.35,1.4.63.17-.33-.64-1.5-.73-1.93s.13-1.51-.49-1.68c-.81-.22-.72.83-.68,1.29q-.19-.26-.35-.53-.33-.28,0-.52c.07-.29.25-.48.22-.82-.06-.69-.77-1.37-1.14-1.91.91-.24.77-1.35.82-2.07q.11-1.34.26-2.68c.2-1.8.46-3.59.75-5.37.36-2.22.72-4.44,1.16-6.64A19.86,19.86,0,0,1,87,17a5,5,0,0,1,1.58-1.84c.53-.33,2.47-.58.93-1.13a45.58,45.58,0,0,1,8.78-2c3.24-.52,6.48-1.06,9.71-1.64a4.43,4.43,0,0,0,.69,2.72c-.59.13-.69,1.72-.81,2.18-.23.92-.45,1.84-.66,2.76a41.08,41.08,0,0,0-1,6,20.35,20.35,0,0,0,0,2.75,2.4,2.4,0,0,0,.25,1.16.49.49,0,0,0,.32.18l0,.37a4.32,4.32,0,0,1,0,.74c0,1-.63,4.79,1.31,4.31a10,10,0,0,0,.54,3.45c.23.54,1,1.48,1.62.68.34-.48-.25-1.11-.45-1.53a5.68,5.68,0,0,1-.5-1.87,29.69,29.69,0,0,1-.09-4.43c.41.94.66,1.95,1,2.92a25.16,25.16,0,0,0,1.21,2.65c.83,1.8.68,4.19,1,6.13.12.7.21,2,.84,2.43a1.76,1.76,0,0,0,1.89-.32,1.48,1.48,0,0,0,.41-1.49c-.15-.62-.89-1.06-1.31-.34a20.65,20.65,0,0,1-1.28-4.06,16.05,16.05,0,0,1,2.2,3.1,10.42,10.42,0,0,0,1.43,3.07c.91.94,2.88.58,2.81-.92a1.27,1.27,0,0,0,1.49-1.7c-.48-1.26-2.08-1.9-2.33-3.22.49.85,1.77,1.42,2.33.21.28-.61-.16-1.36-.32-1.95a18.41,18.41,0,0,1-.5-2.73,32,32,0,0,1,1-10.79,18.19,18.19,0,0,1,1.77-5.12c.85-1.45,1.74-2.87,2.55-4.34a10.39,10.39,0,0,1,2.58-3.45c1-.79,1.74-1.94,2.84-2.62.33-.21.76-.25,1.08-.44l.23-.15a.35.35,0,0,0,.11-.24l.39,0A23.19,23.19,0,0,1,135.91,6c2.29-.3,4.56-.65,6.85-.91-.48.47-1,.93-1.47,1.36-.48-.87-2.7.17-3.36.47A12.44,12.44,0,0,0,134.74,9a14.32,14.32,0,0,0-2.51,2.94,8.14,8.14,0,0,0-1.54,3.37c0,1.28,1.37,1,2,.42a20.66,20.66,0,0,0,1.59-1.64l.69-.79a3.58,3.58,0,0,1,.34-.4,1.94,1.94,0,0,1,.42-.24c1.11-.69,1.91-2,3-2.77a13.76,13.76,0,0,0,3-2.27c.55-.64,1.09-1.29,1.63-1.94.34-.41.46-.63,1-.74a11.62,11.62,0,0,1,1.57-.14c1.91-.15,3.82-.21,5.74-.26a16.28,16.28,0,0,0-5.33,5.83c-.23.46-.68,1.09-.37,1.61a.81.81,0,0,0,1.12.24,7.06,7.06,0,0,0,1.6-1.53c.5-.54,1-1.1,1.45-1.66a30.39,30.39,0,0,1,3-3.13,6.86,6.86,0,0,1,1.76-1.42,8,8,0,0,1,2.13,0c1.64,0,3.25.14,4.88.3s3.21.11,4.8.31c-2.52,2.2-4.17,5.17-5.77,8.05-1.71,3.09-3.48,6-4.39,9.48a36.58,36.58,0,0,0-1,10.53c.1,2.87-1.58,6-.41,8.8a2.65,2.65,0,0,0,.55.9c.28.26.8.31.91.54.27.56-.1,1.2.73,1.43,1.73.47,1.6-2.52,1.77-3.46.41.41.66.1,1.08.08s.55.21.92,0a4.91,4.91,0,0,0,1.36-2c.83-1.63,1.51-3.28,2.49-4.84.54-.86,1.1-1.7,1.64-2.55A8.65,8.65,0,0,0,168,29.53a.5.5,0,0,0-.35-.61c-.38-.08-.58.31-.78.57-.64.79-1.3,1.56-2,2.32a41.74,41.74,0,0,1,2.72-5.14c.45-.74.9-1.47,1.36-2.2a3.73,3.73,0,0,0,.56-1.14.75.75,0,0,0-.11-.42l.54-.52c.71-.68,1.39-1.48,2.17-2.1a13.32,13.32,0,0,1,2.14-.9c.81-.43,1.5-1,2.33-1.43a15.44,15.44,0,0,1,2.41-.86,8.59,8.59,0,0,0-2.71,2.82c-.74,1-1.59,2-2.42,2.92-.35.4-2.48,2.4-1.5,2.78.65.25,2.33-1.83,2.73-2.27,1.59-1.75,2.62-4,4.47-5.49.5-.41,1-.87,1.52-1.24a8.22,8.22,0,0,1,2.08-.88c.72-.26,1.45-.52,2.18-.75a1.57,1.57,0,0,1,1.7.2,15.83,15.83,0,0,0-4.7,3.82,1.31,1.31,0,0,0,.3,1.82c.75.59,1.66.06,2.42-.26a13.33,13.33,0,0,0,2.85-1.69c.66-.5,2.18-2,3-1.9a6.17,6.17,0,0,1,1.61.75c.53.26,1,.54,1.56.8a27.35,27.35,0,0,0,3.38,1.41c-.8.37-5.14,2.84-3.47,4.05.78.57,2.48-.87,3.13-1.26s1.08-.63,1.63-.92c.32-.17.64-.33.95-.52.46-.3.46-.35.94-.31a15,15,0,0,1,3.84,1.33,32.71,32.71,0,0,1,3.65,1.81c2.31,1.31,4.42,2.84,6.58,4.36a1.43,1.43,0,0,1,.65.7c.11.23.16.52.25.76a12.52,12.52,0,0,0,.76,1.62c.59,1.06,1.29,2.06,2,3.06a29.86,29.86,0,0,1,1.9,3.2,7.93,7.93,0,0,1,1.29,3.66c0,1.44,0,2.88,0,4.31,0,1.14.31,2.55.27,3.83a15.54,15.54,0,0,1-.31,1.82c-.08.53,0,1.06,0,1.6a7.18,7.18,0,0,1-.41,1.62c-.11.32-.23.64-.36,1l-.13.31q-.33.34.08.41a8.82,8.82,0,0,1-1.16,2.88,11.51,11.51,0,0,1-1.8,2.5,10.93,10.93,0,0,1-2.56,2c-1,.54-1.79,1.26-2.71,1.87a39.3,39.3,0,0,1-12.53,5c-2.26.54-4.54.95-6.84,1.29s-4.48.45-6.68.84a32,32,0,0,0-3.5.74c-1.32.41-2.66.76-4,1.06-2.68.6-5.39,1-8.07,1.64-5.5,1.26-11.15,1.21-16.65,2.35a63.51,63.51,0,0,1-8.06,1.34,22.56,22.56,0,0,1-3.59,0,16.91,16.91,0,0,0-2.13-.2,14,14,0,0,1-2.17.18,15.53,15.53,0,0,0-1.76-.43c-.62,0-1.27.12-1.89.17a10.73,10.73,0,0,0-2.23.28c-.51.15-1.13.39-1.51.52A38,38,0,0,1,123,82c-2.64.28-5.24-.17-7.86,0a23.3,23.3,0,0,0-3.68.38,35.41,35.41,0,0,1-4.3.71,78.41,78.41,0,0,1-16.62.29q-1.93-.2-3.84-.51a31.12,31.12,0,0,0-4.19-.09,63.8,63.8,0,0,1-8-.79c-5.27-.82-10.56-1.93-15.73-3.27a61.7,61.7,0,0,1-7.54-2.44A74.3,74.3,0,0,1,44.35,73c-4.43-2.33-8.58-4.83-11.4-9.11A19.56,19.56,0,0,1,31.41,61a8.45,8.45,0,0,1-1-3.32c0-.22.17-.44.17-.7a4.48,4.48,0,0,0-.21-1q-.21-.85-.39-1.71a11.8,11.8,0,0,1-.07-3.94,22.56,22.56,0,0,1,5.38-12.23c3.36-3.85,8-5.84,12.6-7.91,2.47-1.12,5-2,7.54-2.86a21,21,0,0,0,6.41-3.21,14.46,14.46,0,0,1,2.45-1.38A29.76,29.76,0,0,1,66.81,21c1.38-.6,4.53-.1,6.35-.51a9.79,9.79,0,0,1,.46-1.94,4.2,4.2,0,0,1,1-1.59,14.23,14.23,0,0,0-4-.89c-1.22-.08-2.44-.21-3.66-.17-2.65.07-4.69,1.34-6.91,2.66A35.29,35.29,0,0,1,53,22c-1.32.43-2.68.71-4,1.15a24.92,24.92,0,0,0-3.35,1.64C43.2,26,40.68,27,38.29,28.31a26,26,0,0,0-10.08,9.52A29.38,29.38,0,0,0,24,51.56a25.14,25.14,0,0,0,3.49,14.28,28.13,28.13,0,0,0,9.56,9.58c2.22,1.33,4.56,2.5,6.83,3.74a30.19,30.19,0,0,0,7.43,3.13,61.92,61.92,0,0,0,7.88,1.07,63.62,63.62,0,0,1,8.06,1.44c5.35,1.27,10.62,2.84,16.1,3.41a116.85,116.85,0,0,0,17.09.24c5.74-.25,11.51-.46,17.24-1,2.81-.26,5.58-.81,8.38-1.18s5.64-.45,8.47-.6,5.53-.25,8.26-.64,5.5-.95,8.29-1.25c5.59-.6,11.21-.75,16.78-1.51s10.92-2.53,16.45-3.55,11.21-1.47,16.51-3.34c2.54-.9,5-2,7.51-3s4.9-1.72,7.26-2.81a19.63,19.63,0,0,0,5.67-3.81,18.8,18.8,0,0,0,2.2-2.63c.23-.33,1.74-2.48,1.59-2.68a24.11,24.11,0,0,1,3-5.56c.42-.63.86-1.26,1.24-1.92.16-.28.37-.91.65-1.09,0,0-.08.25,0,.17a20.88,20.88,0,0,0,1.37-12.48C231,38.65,230.76,37.69,230.6,36.71ZM77.7,40.13c.42.4.87.69,1.06,1.25Q78.22,40.76,77.7,40.13Zm3.86-9.35a21.94,21.94,0,0,1,.88-5.43C82.07,27.18,81.78,29,81.56,30.78Zm26.65-12.26a47.31,47.31,0,0,1,1.07-4.9,1.08,1.08,0,0,0,.4.09C109.12,15.28,108.62,16.89,108.21,18.52Zm7.14,4.93a47.53,47.53,0,0,0-1.66,8.83,29.79,29.79,0,0,1-2.41-8,23.32,23.32,0,0,1,.45-8.69A23.84,23.84,0,0,1,112.8,12c0-.05.16-.67.21-.74a3.53,3.53,0,0,1,.75-.59,11.69,11.69,0,0,1,1.65-1,12.25,12.25,0,0,1,8-1.08C120,13.07,116.84,17.92,115.35,23.45Z"/><path d="M180.93,14.18c.45.36.77-.39,1-.89l-1.34.54A4.26,4.26,0,0,0,180.93,14.18Z"/><path d="M73.16,20.46a2.76,2.76,0,0,0,.77-.28c1.13-.65,1.83-2,1-3a1.1,1.1,0,0,0-.34-.25,4.2,4.2,0,0,0-1,1.59A9.79,9.79,0,0,0,73.16,20.46Z"/><path d="M53.31,39.78c-.76-.16-1.46-.41-2.11.15a20.13,20.13,0,0,0-1.9,2.12c0-.28-.18-.59-.42-.29-.11.14.06.4,0,.55a1.56,1.56,0,0,1-.4.73,5.61,5.61,0,0,0-1.14,2.56c-.17,1.55,1.21,3.43,2.78,2.08a5.55,5.55,0,0,0,1.22-2.19c.38-.93.86-1.82,1.25-2.74a5.33,5.33,0,0,1,.26-.65c.21-.35.18-.21.52-.44s.39-.22.52-.49A1,1,0,0,0,53.31,39.78Z"/><path d="M57.71,42.6a1.29,1.29,0,0,0-1.87,1.05c0,1.37-1.64,3-.45,4.37s1.88-1.39,2.13-2.1C57.82,45,58.88,43.25,57.71,42.6Z"/><path d="M130.48,51.5a2.59,2.59,0,0,0,2.35.83c1.65-.33,1.18-2.14.58-3.19.72.06.19-.1.09-.2s-.35-.08-.37-.34l-.15-.34a6.6,6.6,0,0,1-.34-2.43c0-1,0-1.92-1-2.33a2.2,2.2,0,0,0-2.19.37,2.6,2.6,0,0,0-.58,2.32C128.94,48,129.21,50.15,130.48,51.5Z"/><path d="M146.19,54.36a1.21,1.21,0,0,0,.45-1.59,4,4,0,0,1-.46-2.06,1.58,1.58,0,0,0-.52-1.46,1.67,1.67,0,0,0-2.36.55c-.64,1.26.1,3.27,1.11,4.11C144.92,54.35,145.53,54.78,146.19,54.36Z"/><path d="M187,40.43a2,2,0,0,0,2.21.08,1.3,1.3,0,0,0,.18-2,20.79,20.79,0,0,1-2.32-2,4.16,4.16,0,0,1-.62-1.31c-.1-.35-.08-.94-.34-1.21-.43-.45-1.16-.12-1.4.37a4.18,4.18,0,0,0,0,2.22A5.25,5.25,0,0,0,187,40.43Z"/><path d="M195.27,38.4a1.21,1.21,0,0,0,.92-1.73c-.29-.48-.8-.73-1.08-1.25a6.11,6.11,0,0,1-.4-1.38,1.34,1.34,0,0,0-2.22-.52c-.95,1,.22,3.15.94,4A2.15,2.15,0,0,0,195.27,38.4Z"/><path d="M70.62,21.05a34.23,34.23,0,0,0-2.29,6.66c-.16.81-.92,5.75.82,5.25.84-.24.86-2,1-2.71.19-1.17.32-2.35.45-3.53s.27-2.49.47-3.72a6.31,6.31,0,0,0,.31-1.76C71.28,21,70.83,20.57,70.62,21.05Z"/><path d="M225.07,60.49a24.1,24.1,0,0,1,3-5.56c.42-.63.86-1.26,1.24-1.92.16-.28.37-.91.65-1.09,0,0-.08.25,0,.17a20.88,20.88,0,0,0,1.37-12.48c-.22-1-.47-1.93-.63-2.91a7.3,7.3,0,0,0-.67-2.59,31.06,31.06,0,0,0-3.08-4c-.22-.28-.4-.59-.61-.86-.34-.44-.46-.4-.91-.57-.27-.1-.19,0-.45-.18a5.11,5.11,0,0,1-.57-.54c-.43-.39-.89-.76-1.36-1.11-1.56-1.16-3.27-2.12-4.91-3.15-3.61-2.28-7-4.68-10.94-6.44A54,54,0,0,0,200,14.76c-2.48-.71-5.18-1.74-7.76-1.89.57-1.29-1.48-1.58-2.31-1.64a11.63,11.63,0,0,0-4.13.63c-2.93.89-5.69,2.2-8.54,3.29a8.21,8.21,0,0,0-2,1,16.59,16.59,0,0,0-1.67,1.14,4.36,4.36,0,0,1-1.93,1c-.57.16-.88.35-1,1-.06.29.09.31-.06.56a4.53,4.53,0,0,1-1,.78l-1.79,1.43c-1.24,1-2.47,2-3.65,3.05a24.28,24.28,0,0,0-3.52,3.6,17.88,17.88,0,0,0-2.17,4.66,39.4,39.4,0,0,1,.23-7.06,37.9,37.9,0,0,1,1.88-6.76c.84-2.13,1.91-4.17,2.87-6.25a62.1,62.1,0,0,1,2.79-5.89c.26-.43.54-.86.84-1.26.09-.12.39-.64.52-.66a4.16,4.16,0,0,1,.47.25c.67.29,2.25.88,2.9.41.15-.11.19-.29.32-.41.35-.32,0-.15.42-.21a5.18,5.18,0,0,1,1.66.36,7.34,7.34,0,0,1,2.69,1.33,7.71,7.71,0,0,1,2.25,4.38c.12.54.07,1.71.53,2.07s1.22-.09,1.39-.58c.5-1.34-.06-3.49-.66-4.73a7.4,7.4,0,0,0-2.75-3,11.64,11.64,0,0,0-4.1-1.53c-.37-.07-.74-.12-1.12-.17-.57-.07-.7,0-1-.38s-.36-.8-.67-1.14a3.64,3.64,0,0,0-1.21-.83A16.39,16.39,0,0,0,163.29.4C160.89.21,158.5.06,156.1,0a79.77,79.77,0,0,0-14,1.06c-5,.8-10,1.94-14.89,3.23-1.18.31-2.37.72-3.56,1s-2.31,0-3.44.14a13.26,13.26,0,0,0-6.44,2.51c-.65-1.22-3.27-.78-4.4-.74a39.24,39.24,0,0,0-5.34.59,72.4,72.4,0,0,0-10.05,2.47,31.43,31.43,0,0,0-4.49,1.84c-.7.36-1.39.9-2.11,1.21a12.07,12.07,0,0,1-2.06.34,11.61,11.61,0,0,0-3.89,1.63c-.48.31-3.07,2.14-2.73,2.82s1.11-.73,1.33-1a8.48,8.48,0,0,1,1.84-1.48,13.83,13.83,0,0,1,4.39-1.56c-.11.08-.34.06-.39.11a4.33,4.33,0,0,0-.43.42c-.34.37-.72.73-1.09,1.09-.21.21-.8.64-.83,1a.44.44,0,0,0,.69.43c-2.64,5-5.56,9.62-6,15.4A34.93,34.93,0,0,1,76.56,24a20.31,20.31,0,0,1-.14-4,5,5,0,0,1,.28-1.4c.2-.5.52-.58.83-1,1.14-1.34-1.19-1.59-2-1.31a3.36,3.36,0,0,0-1.91,2.2c-.78,2.18-.6,4.61-.62,6.89,0,4.61.49,9.43,3.38,13.23-.53-.47-1,.08-.86.64.11.34.41.56.5,1s.11.94.26,1.39.86,1.66,1.59,1.53-.5-1.31-.68-1.75a14.78,14.78,0,0,0,3.3,3.43,8.67,8.67,0,0,0,1.64.7c.7.28,1.41.4,1.78-.45.21.32,1,1.35,1.4.63.17-.33-.64-1.5-.73-1.93s.13-1.51-.49-1.68c-.81-.22-.72.83-.68,1.29q-.19-.26-.35-.53-.33-.28,0-.52c.07-.29.25-.48.22-.82-.06-.69-.77-1.37-1.14-1.91.91-.24.77-1.35.82-2.07q.11-1.34.26-2.68c.2-1.8.46-3.59.75-5.37.36-2.22.73-4.44,1.16-6.64A19.87,19.87,0,0,1,87,17a5,5,0,0,1,1.58-1.84c.53-.33,2.47-.58.93-1.13a45.58,45.58,0,0,1,8.78-2c3.24-.52,6.48-1.06,9.71-1.64a4.43,4.43,0,0,0,.69,2.72c-.59.13-.69,1.72-.81,2.18-.23.92-.45,1.84-.66,2.76a41.08,41.08,0,0,0-1,6,20.36,20.36,0,0,0,0,2.75,2.4,2.4,0,0,0,.25,1.16.49.49,0,0,0,.32.18l0,.37a4.33,4.33,0,0,1,0,.74c0,1-.63,4.79,1.31,4.31a10,10,0,0,0,.54,3.45c.23.54,1,1.48,1.62.68.34-.48-.25-1.11-.45-1.53a5.68,5.68,0,0,1-.5-1.87,29.68,29.68,0,0,1-.09-4.43c.41.94.66,1.95,1,2.92a25.2,25.2,0,0,0,1.21,2.65c.83,1.8.68,4.19,1,6.13.12.7.21,2,.84,2.43a1.76,1.76,0,0,0,1.89-.32,1.48,1.48,0,0,0,.41-1.49c-.15-.62-.89-1.06-1.31-.34a20.65,20.65,0,0,1-1.28-4.06,16.05,16.05,0,0,1,2.2,3.1,10.43,10.43,0,0,0,1.43,3.07c.91.94,2.88.58,2.81-.92a1.27,1.27,0,0,0,1.49-1.7c-.48-1.26-2.08-1.9-2.33-3.22.49.85,1.77,1.42,2.33.21.28-.61-.16-1.36-.32-1.95a18.41,18.41,0,0,1-.5-2.73,32,32,0,0,1,1-10.79,18.18,18.18,0,0,1,1.77-5.12c.85-1.45,1.74-2.87,2.55-4.34a10.39,10.39,0,0,1,2.58-3.45c1-.79,1.74-1.94,2.84-2.62.33-.21.76-.25,1.08-.44l.23-.15a.35.35,0,0,0,.11-.24l.39,0A23.19,23.19,0,0,1,135.91,6c2.29-.3,4.56-.65,6.85-.92-.48.47-1,.93-1.47,1.36-.48-.87-2.7.17-3.36.47A12.44,12.44,0,0,0,134.74,9a14.32,14.32,0,0,0-2.51,2.94,8.14,8.14,0,0,0-1.54,3.37c0,1.28,1.37,1,2,.42a20.67,20.67,0,0,0,1.59-1.64l.69-.79a3.59,3.59,0,0,1,.34-.4,1.94,1.94,0,0,1,.42-.24c1.11-.69,1.91-2,3-2.77a13.76,13.76,0,0,0,3-2.27c.55-.64,1.09-1.29,1.63-1.94.34-.41.46-.63,1-.74a11.62,11.62,0,0,1,1.57-.14c1.91-.15,3.82-.21,5.74-.26a16.28,16.28,0,0,0-5.33,5.83c-.23.46-.68,1.09-.37,1.61a.81.81,0,0,0,1.12.24,7.06,7.06,0,0,0,1.6-1.53c.5-.54,1-1.1,1.45-1.66a30.37,30.37,0,0,1,3-3.13,6.85,6.85,0,0,1,1.76-1.42,8,8,0,0,1,2.13,0c1.63,0,3.25.14,4.88.3s3.21.11,4.8.31c-2.52,2.2-4.17,5.17-5.77,8.05-1.71,3.09-3.48,6-4.39,9.48a36.58,36.58,0,0,0-1,10.53c.1,2.87-1.58,6-.41,8.8a2.65,2.65,0,0,0,.55.9c.28.26.8.31.91.54.27.56-.1,1.2.73,1.43,1.73.47,1.6-2.52,1.77-3.46.41.41.66.1,1.08.08s.55.21.92,0a4.91,4.91,0,0,0,1.36-2c.83-1.63,1.51-3.28,2.49-4.84.54-.86,1.1-1.7,1.64-2.55A8.65,8.65,0,0,0,168,29.53a.5.5,0,0,0-.35-.61c-.38-.08-.58.31-.78.57-.64.79-1.3,1.56-2,2.32a41.73,41.73,0,0,1,2.72-5.14c.45-.74.9-1.47,1.36-2.2a3.73,3.73,0,0,0,.56-1.14.75.75,0,0,0-.11-.42l.54-.52c.71-.68,1.39-1.48,2.17-2.1a13.32,13.32,0,0,1,2.14-.9c.81-.43,1.5-1,2.33-1.43a15.44,15.44,0,0,1,2.41-.86,8.59,8.59,0,0,0-2.71,2.82c-.74,1-1.59,2-2.42,2.92-.35.4-2.48,2.4-1.5,2.78.65.25,2.33-1.83,2.73-2.27,1.59-1.75,2.62-4,4.47-5.49.5-.41,1-.87,1.52-1.24a8.22,8.22,0,0,1,2.08-.88c.72-.26,1.45-.52,2.18-.75a1.57,1.57,0,0,1,1.7.2,15.83,15.83,0,0,0-4.7,3.82,1.31,1.31,0,0,0,.3,1.82c.75.59,1.66.06,2.41-.26a13.33,13.33,0,0,0,2.85-1.69c.66-.5,2.18-2,3-1.9a6.17,6.17,0,0,1,1.61.75c.53.26,1,.54,1.56.8a27.36,27.36,0,0,0,3.38,1.41c-.8.37-5.14,2.84-3.47,4.05.78.57,2.48-.87,3.13-1.26s1.08-.63,1.63-.92c.32-.17.64-.33.95-.52.46-.3.46-.35.94-.31a15,15,0,0,1,3.84,1.33,32.71,32.71,0,0,1,3.65,1.81c2.31,1.31,4.42,2.84,6.58,4.36a1.43,1.43,0,0,1,.65.7c.11.23.16.52.25.76a12.53,12.53,0,0,0,.76,1.62c.59,1.06,1.29,2.06,2,3.06a29.86,29.86,0,0,1,1.9,3.2,7.93,7.93,0,0,1,1.29,3.66c0,1.44,0,2.88,0,4.31,0,1.14.31,2.55.27,3.83a15.55,15.55,0,0,1-.31,1.82c-.08.53,0,1.06,0,1.6a7.18,7.18,0,0,1-.41,1.62c-.11.32-.23.64-.36,1l-.13.31q-.33.34.08.41a8.82,8.82,0,0,1-1.16,2.88,11.51,11.51,0,0,1-1.8,2.5,10.93,10.93,0,0,1-2.56,2c-1,.54-1.79,1.26-2.71,1.87a39.29,39.29,0,0,1-12.53,5c-2.26.54-4.54.95-6.84,1.29s-4.48.45-6.68.84a32,32,0,0,0-3.5.74c-1.32.41-2.66.76-4,1.06-2.68.6-5.39,1-8.07,1.64-5.5,1.26-11.15,1.21-16.65,2.35a63.51,63.51,0,0,1-8.06,1.34,22.56,22.56,0,0,1-3.59,0,16.92,16.92,0,0,0-2.13-.2,13.94,13.94,0,0,1-2.17.18,15.54,15.54,0,0,0-1.76-.43c-.62,0-1.27.12-1.89.17a10.73,10.73,0,0,0-2.23.28c-.51.15-1.13.39-1.51.52A38,38,0,0,1,123,82c-2.64.28-5.24-.17-7.86,0a23.29,23.29,0,0,0-3.68.38,35.41,35.41,0,0,1-4.3.71,78.41,78.41,0,0,1-16.62.29q-1.93-.2-3.84-.51a31.11,31.11,0,0,0-4.19-.09,63.81,63.81,0,0,1-8-.79c-5.27-.82-10.56-1.93-15.73-3.27a61.68,61.68,0,0,1-7.54-2.44A74.29,74.29,0,0,1,44.35,73c-4.43-2.33-8.58-4.83-11.4-9.11A19.57,19.57,0,0,1,31.41,61a8.45,8.45,0,0,1-1-3.32c0-.22.17-.44.17-.7a4.48,4.48,0,0,0-.21-1q-.21-.85-.39-1.71a11.8,11.8,0,0,1-.08-3.94,22.56,22.56,0,0,1,5.38-12.23c3.36-3.85,8-5.84,12.6-7.91,2.47-1.12,5-2,7.54-2.86a21,21,0,0,0,6.41-3.21,14.46,14.46,0,0,1,2.45-1.38A29.76,29.76,0,0,1,66.81,21c1.61-.7,3.64.05,5.16-.82a2.25,2.25,0,0,0,.68-3.28,2.58,2.58,0,0,0-2-.82c-1.22-.08-2.44-.21-3.66-.17-2.65.07-4.69,1.34-6.91,2.66A35.29,35.29,0,0,1,53,22c-1.32.43-2.68.71-4,1.15a24.92,24.92,0,0,0-3.35,1.64C43.2,26,40.68,27,38.29,28.31a26,26,0,0,0-10.08,9.52A29.38,29.38,0,0,0,24,51.56a25.14,25.14,0,0,0,3.49,14.28,28.13,28.13,0,0,0,9.56,9.58c2.22,1.33,4.56,2.5,6.83,3.74a30.19,30.19,0,0,0,7.43,3.13,61.93,61.93,0,0,0,7.88,1.07,63.61,63.61,0,0,1,8.06,1.44c5.35,1.27,10.62,2.84,16.1,3.41a116.85,116.85,0,0,0,17.09.24c5.74-.25,11.51-.46,17.24-1,2.81-.26,5.58-.81,8.38-1.18s5.64-.45,8.47-.6,5.52-.25,8.26-.64,5.5-.95,8.29-1.25c5.59-.6,11.21-.75,16.78-1.51s10.92-2.53,16.45-3.55,11.21-1.47,16.51-3.34c2.54-.9,5-2,7.51-3s4.9-1.72,7.26-2.81a19.63,19.63,0,0,0,5.67-3.81,18.79,18.79,0,0,0,2.2-2.63C223.7,62.84,225.22,60.68,225.07,60.49ZM77.7,40.13c.42.4.87.69,1.06,1.25Q78.22,40.76,77.7,40.13Zm3.86-9.35a21.94,21.94,0,0,1,.88-5.43C82.07,27.18,81.78,29,81.56,30.78Zm26.65-12.26a47.3,47.3,0,0,1,1.07-4.9,1.08,1.08,0,0,0,.4.09C109.12,15.28,108.62,16.89,108.21,18.52Zm7.14,4.93a47.53,47.53,0,0,0-1.66,8.83,29.79,29.79,0,0,1-2.41-8,23.32,23.32,0,0,1,.45-8.69A23.84,23.84,0,0,1,112.8,12c0-.05.16-.67.21-.74a3.53,3.53,0,0,1,.75-.59,11.68,11.68,0,0,1,1.65-1,12.25,12.25,0,0,1,8-1.08C120,13.07,116.84,17.92,115.35,23.45Zm12.28-15.7a5.06,5.06,0,0,1,.5-1c.23-.26.83-.16,1.26-.18A10.8,10.8,0,0,0,127.63,7.75Z"/><path d="M53.31,39.78c-.76-.16-1.46-.41-2.11.15a20.13,20.13,0,0,0-1.9,2.12c0-.28-.18-.59-.42-.29-.11.14.06.4,0,.55a1.56,1.56,0,0,1-.4.73,5.61,5.61,0,0,0-1.14,2.56c-.17,1.55,1.21,3.43,2.78,2.08a5.55,5.55,0,0,0,1.22-2.19c.38-.93.86-1.82,1.25-2.74a5.34,5.34,0,0,1,.26-.65c.21-.35.18-.21.52-.44s.39-.22.52-.49A1,1,0,0,0,53.31,39.78Z"/><path d="M55.84,43.65c0,1.37-1.64,3-.45,4.37s1.88-1.39,2.13-2.1c.31-.88,1.36-2.67.19-3.32A1.29,1.29,0,0,0,55.84,43.65Z"/><path d="M133.41,49.14c.72.06.19-.1.09-.2s-.35-.08-.37-.34l-.15-.34a6.6,6.6,0,0,1-.34-2.43c0-1,0-1.92-1-2.33a2.2,2.2,0,0,0-2.19.37,2.6,2.6,0,0,0-.58,2.32c.11,1.76.38,4,1.65,5.31a2.59,2.59,0,0,0,2.35.83C134.47,52,134,50.19,133.41,49.14Z"/><path d="M146.64,52.77a4,4,0,0,1-.46-2.06,1.58,1.58,0,0,0-.52-1.46,1.67,1.67,0,0,0-2.36.55c-.64,1.26.1,3.27,1.11,4.11.52.43,1.13.87,1.79.44A1.21,1.21,0,0,0,146.64,52.77Z"/><path d="M189.41,38.53a20.78,20.78,0,0,1-2.32-2,4.16,4.16,0,0,1-.62-1.31c-.1-.35-.08-.94-.34-1.21-.43-.45-1.16-.12-1.4.37a4.18,4.18,0,0,0,0,2.22,5.25,5.25,0,0,0,2.3,3.81,2,2,0,0,0,2.21.08A1.3,1.3,0,0,0,189.41,38.53Z"/><path d="M196.19,36.67c-.29-.48-.8-.73-1.08-1.25a6.11,6.11,0,0,1-.4-1.38,1.34,1.34,0,0,0-2.22-.52c-.95,1,.22,3.15.94,4a2.15,2.15,0,0,0,1.85.91A1.21,1.21,0,0,0,196.19,36.67Z"/><path d="M41.78,80.51c2.61-3.69,3.52-10.8-1.18-13.27A15,15,0,0,0,33.68,66a41.13,41.13,0,0,0-8.81.94,26.89,26.89,0,0,0-7.29,2.66,15.37,15.37,0,0,0-5.94,5.16c-1.06,1.81-1.34,4.29.18,5.93a7.31,7.31,0,0,0,1.66,1.26,8.65,8.65,0,0,0,.86.45c.24.11.84.19,1,.36.62.63-.61,3.27-1,4q-.24.47-.52.92c-.27.44-.26.41-.73.37a5.8,5.8,0,0,1-2-.73,10.37,10.37,0,0,1-3.23-2.65,9.66,9.66,0,0,1-1.86-7c.44-5,4.23-8.67,8.4-11.07A40.33,40.33,0,0,1,29.66,62c5.57-.69,11.56-1,17,.58,4.49,1.28,8,4.13,8.26,9.05.31,5.74-3.33,10-8,12.83a26.94,26.94,0,0,1-4,1.91,15.31,15.31,0,0,1,5.88,1.56c.78.4,1.41,1.06,2.16,1.47.44.24.08.24.68.15a5.32,5.32,0,0,0,.74-.25q1.08-.35,2.16-.66a43.42,43.42,0,0,1,6.75-1.4c.94-.11,1.89-.12,2.84-.16l.79,0c.47,0,.44-.14.62.3a4.7,4.7,0,0,1,0,1.86A5.63,5.63,0,0,1,65,91.78c-.26.33-.62.17-1.09.14s-1,0-1.44,0a28,28,0,0,0-6.85.92,4.9,4.9,0,0,0-1.51.49c-.34.28-.24-.18-.18.44a5.55,5.55,0,0,0,.25.83,16.56,16.56,0,0,1,.56,3.7,20.81,20.81,0,0,1-.71,6.36,18.28,18.28,0,0,1-7,9.94c-3.15,2.22-7.62,3.37-11.28,1.75s-5-5.61-4.45-9.43c.59-4.46,3.7-8.26,7.07-11a27,27,0,0,1,3-2.13l.58-.35c.54-.32.52-.19.42-.74a4.23,4.23,0,0,0-.72-1.31,6,6,0,0,0-4.45-2.64,11.6,11.6,0,0,1-1.61,0c-.37-.1-.06.22-.31-.27a2.59,2.59,0,0,1-.1-.9,9,9,0,0,1,.14-2,3.49,3.49,0,0,1,.15-.72c.22-.49.28-.37.79-.43C38.67,84.05,40.4,82.47,41.78,80.51ZM23.5,77a4.19,4.19,0,0,0-.56-2.4,9.63,9.63,0,0,0-.83-1c-.54-.63-.29-.89.36-1.25a18.58,18.58,0,0,1,6.23-2A29.54,29.54,0,0,1,32.44,70c.64,0,1.92-.22,2.33.41s.27,2.16.25,2.85c0,.3,0,.6-.07.9a80.3,80.3,0,0,1-1.6,8C32.25,87,31,91.77,30.07,96.64c-.79,4.32-1.3,8.67-2.06,13a10.81,10.81,0,0,1-.89,3.45c-.58,1-2.2,1.14-3.23,1.3a46.09,46.09,0,0,1-6.1.51,8.85,8.85,0,0,1-1.45,0c-.41-.06-.5,0-.59-.38a5.29,5.29,0,0,1,.2-1.62c.51-3.4,1.31-6.76,2.1-10.1,1.28-5.37,2.75-10.69,3.93-16.08A46.13,46.13,0,0,0,23.5,77Zm15,34.06c2.19-.14,3.28-3.19,3.86-4.89a21.58,21.58,0,0,0,1-8.27,14.24,14.24,0,0,0-6.69,6.46C35.86,106.21,35.07,111.27,38.54,111Z"/><path d="M62.23,111.72c-.56.06-.43.06-.57-.37a5,5,0,0,1-.07-1.34,14.77,14.77,0,0,1,0-1.73c.14-1.41.4-2.81.66-4.2.81-4.4,1.83-8.76,2.65-13.16a27.15,27.15,0,0,0,.51-3.22c.12-2-1-3.7-2.18-5.17-.29-.37-.72-.85-.41-1.36.15-.25.32-.28.65-.4.69-.25,1.38-.48,2.07-.7a51.1,51.1,0,0,1,4.95-1.34c1.3-.27,3.17-.79,4.48-.3.66.25.74.92.87,1.56a19.55,19.55,0,0,1,.32,3.73,16.76,16.76,0,0,1,5.32-5.45c1.94-1.22,4.35-1.83,6,.13a5.56,5.56,0,0,1,1.25,3,3.68,3.68,0,0,1-1.07,3.1,17.32,17.32,0,0,1-2.55,2.34A13.38,13.38,0,0,1,83.35,88c-.35.19-1.38.85-1.78.72-.18-.06-.41-.57-.51-.71-.4-.6-.76-1.22-1.19-1.79-.23-.3-.56-.82-.94-.95s-1,.28-1.36.54A9.3,9.3,0,0,0,76,87.14a3.77,3.77,0,0,0-.87,2.13q-.47,2.19-.91,4.39a104.82,104.82,0,0,0-2,12.25,24.76,24.76,0,0,0-.06,2.56,4.49,4.49,0,0,1,0,.89c-.07.32,0,.21-.25.41a4.58,4.58,0,0,1-1.19.45A41.66,41.66,0,0,1,62.23,111.72Z"/><path d="M97.08,108.25a9,9,0,0,1-6.57-1.38A9.43,9.43,0,0,1,87.24,102c-1.45-4.66-.85-10.21.84-14.72s4.54-8.52,8.77-10.73a16.89,16.89,0,0,1,6.47-1.84,9.07,9.07,0,0,0,1.9-.15c.49-.16.94-.54,1.45-.72a5.74,5.74,0,0,1,2.68-.31c4.17.62,4.29,6.82,4.29,9.95a39.73,39.73,0,0,0,7.13-2.08,11.9,11.9,0,0,1,.38,2.4q.23.39-.16.47l-.46.24-1,.49a50.19,50.19,0,0,1-5,1.95c-.25.08-1,.19-1.12.38s-.2,1.08-.27,1.37q-.25,1.17-.57,2.33a35.7,35.7,0,0,1-1.82,5C108.07,101.9,103.83,107.35,97.08,108.25Zm3.89-6.71c2.52-.34,4.25-2.57,5.44-4.62a29.66,29.66,0,0,0,3.35-8.67c-2.24.31-5.31.43-6.83-1.6-1.76-2.35-.69-6,.42-8.32-2-.74-3.55,3.07-4.11,4.38a28.09,28.09,0,0,0-2.11,8.65C96.9,94,96.25,102.17,101,101.54Z"/><path d="M139,70.55a10.46,10.46,0,0,1-.38,2c-.12.44-.27.87-.43,1.3l-.2.52c-.19.47-.11.44-.61.55a24,24,0,0,1-2.64.17c-.89.08-1.77.19-2.65.32-.59.08-.68,0-.88.5a10,10,0,0,0-.3,1.51q-.27,1.34-.52,2.69-.45,2.32-.87,4.64c-.44,2.42-.85,4.84-1.18,7.28a22.21,22.21,0,0,0-.34,4.46c.08,1.14.45,1.71,1.56,1.26a30.21,30.21,0,0,0,4.12-2.25,11.43,11.43,0,0,1,1.11,1.88c.2.6.15.15-.1.58a3.57,3.57,0,0,1-.57.53q-.55.51-1.12,1a29.64,29.64,0,0,1-4.07,3c-2.25,1.35-5.3,2.75-8,2.17-3.32-.71-3.74-3.93-3.54-6.78A71.76,71.76,0,0,1,119,88.22c.76-3.61,1.6-7.21,2.2-10.86-1.33.29-2.66.59-4,1a13.1,13.1,0,0,1-.14-2.14,6.15,6.15,0,0,1,.16-2.37c.2-.39,0-.16.43-.3a3.68,3.68,0,0,1,.68-.1l1.06-.15,1-.15c.26,0,1.19,0,1.38-.19a5.2,5.2,0,0,0,.2-1.49q.08-.64.14-1.28.14-1.4.2-2.81c0-.79,0-1.57,0-2.36l0-1c0-.59-.15-.76.33-1.06a22.38,22.38,0,0,1,3.94-1.66c1.25-.47,2.52-.92,3.81-1.27.52-.14,1.8-.66,2.33-.38.69.36.43,2.36.44,3a44,44,0,0,1-1.22,8.9Z"/><path d="M141.79,95.29l.49-11.71.25-6a6.3,6.3,0,0,0-1.75-5.09c-.15-.16-.37-.32-.51-.5-.38-.48-.2-.11-.23-.56,0-.66.39-.7.91-.9.87-.33,1.75-.65,2.64-.94a19.08,19.08,0,0,1,6.06-1.28c3.89.1,3.77,4.9,3.57,7.65-.29,3.95-1.13,7.82-1.58,11.74-.18,1.59-1.29,7.34,1.74,6.42a6.47,6.47,0,0,0,2-1.13c.65-.51,1.91-1.4,2.2-2.18a14.45,14.45,0,0,0,.33-2.93c.49-3.84,1.12-7.68,1.38-11.55a29.24,29.24,0,0,0,0-4.85c0-.4-.09-.8-.15-1.2-.11-.65-.3-.75.32-1.06,1-.51,2-1,3.09-1.45a18.47,18.47,0,0,1,5.17-1.67,2,2,0,0,1,1.39.13c.41.32.51,1.23.59,1.7.57,3.45-.16,7.2-.75,10.59a69.82,69.82,0,0,0-1.53,10.73c0,.91-.13,3,1.25,3S171.37,91,172.3,90A24.79,24.79,0,0,0,176.15,85c.71-1.19,1.83-2.95,1.81-4.4,0-.55-.19-.64-.61-1.06l-1-1-1.93-1.93a6.6,6.6,0,0,1-1.12-1.12c-.23-.41,0-1.1,0-1.58a17.58,17.58,0,0,1,.8-3.07,15.63,15.63,0,0,1,2.68-4.92c.24-.27.49-.52.74-.78a1.35,1.35,0,0,1,1.24-.49,6.26,6.26,0,0,1,2.63.41c3.74,1.57,2.91,6.44,2.28,9.6a38.91,38.91,0,0,1-4.51,11.73,33.54,33.54,0,0,1-7.92,9.53c-2.63,2.09-6.75,4.27-10.17,2.91a5.69,5.69,0,0,1-3.3-3.89c-2.45,2.77-5.55,5.56-9.3,6.27a5.7,5.7,0,0,1-4.65-.75A6.48,6.48,0,0,1,141.79,95.29Z"/><path d="M184.85,83.31a21.27,21.27,0,0,1,6.27-15.64c4-3.92,10.25-6.8,16-5.18a6.84,6.84,0,0,1,5.17,5.26A10.35,10.35,0,0,1,209.87,76c-2.12,2.56-5.15,4.08-8.15,5.39a30.75,30.75,0,0,1-4.21,1.5,14.07,14.07,0,0,0-2,.46c-.4.18-.32.21-.26.68s.1.75.17,1.13c.45,2.27,1.71,4.31,4.2,4.53,3.38.3,6.49-2,8.89-4.1a13,13,0,0,1,1.51,1.9c.22.43.18.35-.14.73s-.46.49-.7.72A31.29,31.29,0,0,1,205,92.26a20.22,20.22,0,0,1-9.89,3.32,8.84,8.84,0,0,1-7.83-3.36C185.35,89.7,184.85,86.39,184.85,83.31ZM201,76.26a10.31,10.31,0,0,0,2.14-7.17c-.1-1.81-.94-3.61-3-2.88s-3,3.32-3.57,5.23a29.56,29.56,0,0,0-1.36,8.45A11.25,11.25,0,0,0,201,76.26Z"/><path d="M222.28,45.16a8.54,8.54,0,0,0-.43-3.36A35.6,35.6,0,0,1,230,39.32c.65-.09,2-.34,2.54.21s.51,2.5.5,3.32a61.36,61.36,0,0,1-1.68,11.2c-.72,3.57-1.52,7.12-2.35,10.67,2.74-2.1,6-4.16,9.5-4.5a5.71,5.71,0,0,1,4.32,1.08,6.36,6.36,0,0,1,1.93,4.59c.31,6.29-3.12,12.2-3.3,18.44,0,.69-.23,2.66.84,2.54a6.14,6.14,0,0,0,1.79-.77l1.26-.65a3.41,3.41,0,0,1,.56-.28c.12,0,.4.77.45.88l.53,1c.27.53.36.57-.09,1a21.62,21.62,0,0,1-1.93,1.53,26.82,26.82,0,0,1-4.68,2.51c-3,1.23-7.17,1.62-8.74-1.9-1.14-2.56-.26-5.89.26-8.51.71-3.58,1.68-7.1,2.25-10.71a5.76,5.76,0,0,0,0-3c-.61-1.35-2.57-.65-3.59-.25-.73.28-2.13.76-2.48,1.43a13.77,13.77,0,0,0-.7,3.17q-.62,2.84-1.19,5.68c-.59,2.94-1.15,5.9-1.58,8.87-.14,1-.27,2-.36,3.06,0,.38-.06.76-.07,1.14,0,.53.05.63-.44.84a27.65,27.65,0,0,1-7,1.62c-.64.09-2,.43-2.61.07s-.32-1.78-.29-2.44a33,33,0,0,1,.65-4.55c1.27-6.86,3-13.63,4.49-20.44a142.13,142.13,0,0,0,3.29-18.32C222.23,46.95,222.28,46.06,222.28,45.16Z"/><path class="cls-3" d="M272.86,48.26V26.88a7.49,7.49,0,0,0-.76-3.81c-1.72-3.09-5-3.26-8.16-2.93a34.52,34.52,0,0,0-9.68,2.68c-3.2,1.34-6.37,3-9.86,3.36-1.58.18-3.09,0-4.54.79a6.05,6.05,0,0,0-2.73,3,8.51,8.51,0,0,0-.47,3.44v1.74a6,6,0,0,0-1.82-1.22c-4.18-1.81-9.46.16-13.44,1.64-2.52.94-4.78,2.1-5.41,5-.39,1.75.34,3.42.28,5.18a49.5,49.5,0,0,1-.73,6.36c-.41,2.53-.89,5-1.41,7.54-6.15-5.46-16.44-3.88-22.95.36a27.26,27.26,0,0,0-3.38,2.61,10.56,10.56,0,0,0-5.17-3.49c-3.17-.95-6.89-.8-9.28,1.67-.1.11-.37.49-.52.54s-.39-.14-.66-.3a6.62,6.62,0,0,0-2.41-.85,10.88,10.88,0,0,0-3.72.13,34.62,34.62,0,0,0-8.56,3.22c-.48.23-1,.46-1.42.72s-.46.24-.94-.12a9.35,9.35,0,0,0-2.18-1.2,10,10,0,0,0-5-.49,38,38,0,0,0-7.3,1.83c.15-3.14-.12-6.74-2.84-8.66s-6.27-1-9.25,0A65,65,0,0,0,122,58.13a6.44,6.44,0,0,0-4.09,4.78,15.2,15.2,0,0,0,0,3c0,.52,0,1,0,1.56a4,4,0,0,1,0,.69c-.15.63.08.19-.29.4a9.78,9.78,0,0,1-1.06.33,5.78,5.78,0,0,0-1.42.83c-.15-.13-.29-.26-.44-.37a10.57,10.57,0,0,0-9.19-1.38c-.68.19-1.32.57-2,.73a8.42,8.42,0,0,1-1.13.09,21.56,21.56,0,0,0-3.7.7A22.36,22.36,0,0,0,91.18,73l-.3.25a9.25,9.25,0,0,0-4.12-2.07,10,10,0,0,0-4.79.29,13.75,13.75,0,0,0-2.4.95c-.36.18-.71.44-1.09.61s-.61,0-1.12-.19c-2.61-1-5.58-.57-8.25,0a59.52,59.52,0,0,0-6.86,1.95c-.54.18-1.06.38-1.56.6,1-6.07-1.06-12.53-6.48-16.08-6.82-4.47-16-4.31-23.83-3.51s-15.66,2.88-22,7.6C3.5,67.07.06,72.39,0,78.59A15.28,15.28,0,0,0,3.64,88.91c2.44,2.77,6.5,5.5,10.37,5.2-1.15,4.59-2.33,9.18-3.28,13.82-.38,1.86-.74,3.74-.94,5.63a6.33,6.33,0,0,0,5.84,7.26,32.88,32.88,0,0,0,7.4-.26,23.61,23.61,0,0,0,4.77-.94c.3-.1.6-.21.89-.33.54-.23.51-.21,1,.21a13.85,13.85,0,0,0,2.59,1.82,15,15,0,0,0,7.17,1.76,19.88,19.88,0,0,0,13.86-5.94,25.1,25.1,0,0,0,2.81-3.3,6,6,0,0,0,5.6,3.92,31.26,31.26,0,0,0,4.13-.43,39.46,39.46,0,0,0,6.79-1.4,8.75,8.75,0,0,0,4.19-2.42c1.61-1.91,1.28-4,1.34-6.26a30,30,0,0,1,.37-3.59c.38-2.65.88-5.29,1.4-7.92a3.53,3.53,0,0,1,.19-.95c.14-.19.18-.18.35-.14a24,24,0,0,0,1.77,11.08,14.27,14.27,0,0,0,13.17,8.62,20.22,20.22,0,0,0,12.64-4.58,25.42,25.42,0,0,0,5.17-5.88,10,10,0,0,0,1.85,3.73,10.77,10.77,0,0,0,8.41,3.92c5.38,0,10.42-3,14.41-6.36.42-.35.86-.71,1.29-1.09a10.42,10.42,0,0,0,7.61,3.18,15.45,15.45,0,0,0,5.14-.91,18.68,18.68,0,0,0,2.66-1.19q.63-.34,1.24-.73a6.58,6.58,0,0,1,1.23-.83c.55-.14,1.86.75,2.52,1a11.65,11.65,0,0,0,2.43.49,17,17,0,0,0,9.74-2.37A31.38,31.38,0,0,0,181.3,94a15.34,15.34,0,0,0,1.33,2.05,14.7,14.7,0,0,0,11.7,5.55,26.09,26.09,0,0,0,14.49-4.74,5.68,5.68,0,0,0,.51.65,7.21,7.21,0,0,0,5.45,2.16A34.35,34.35,0,0,0,224.16,98,10,10,0,0,0,228,96.29c.35-.3.18-.29.58-.12a3.12,3.12,0,0,1,.46.4,10.39,10.39,0,0,0,3.39,1.87c6.25,2.06,13.28-1.59,18-5.53,2.39-2,3.68-4.81,2.27-7.83-.76-1.63-1.59-3.57-3.06-4.68-.27-.2-.92-.42-1.11-.66s0-.57.07-.91c.21-.85.43-1.69.64-2.54.42-1.69.81-3.4,1.11-5.11a20.31,20.31,0,0,0,.1-8.3,12.31,12.31,0,0,0-.43-1.38,52.86,52.86,0,0,0,7-2.59,44.59,44.59,0,0,1,5.19-2,35.86,35.86,0,0,1,5.46-.75,6.06,6.06,0,0,0,5.18-5.67C272.89,49.73,272.86,49,272.86,48.26Z"/><path class="cls-4" d="M242.67,32.28q0,12.1,0,24.2c6.2,0,11.25-3.2,17-5.07a24.2,24.2,0,0,1,4.38-1,21.63,21.63,0,0,1,2.36-.18c.63,0,.5-.2.5-.79V26C258.23,26,251.3,32.28,242.67,32.28Zm19.16,8.53c-1.13.29-2.24.63-3.33,1-.29.1-1.55.38-1.71.64s0,1.5,0,1.95V46.8c0,.57.07.59-.36.85a23.19,23.19,0,0,1-3.67,1.42V44a47.87,47.87,0,0,1-5,1.66V42.35c0-.71,0-.68.67-.87s1.33-.38,2-.61a7.61,7.61,0,0,0,2.21-.81c.39-.35.17-1.7.17-2.3V35.67c0-.73,0-.72.69-1l.9-.35,2.44-.94v5a47.88,47.88,0,0,1,5-1.66Z"/><path class="cls-3" d="M256.78,33.4l-2.44.94-.9.35c-.68.26-.69.25-.69,1v2.09c0,.6.21,2-.17,2.3a7.61,7.61,0,0,1-2.21.81c-.65.22-1.31.42-2,.61s-.67.16-.67.87v3.34a47.87,47.87,0,0,0,5-1.66v5l2.44-.94.9-.35c.68-.26.69-.25.69-1V44.71c0-.6-.21-2,.17-2.3a7.61,7.61,0,0,1,2.21-.81c.65-.22,1.31-.42,2-.61s.67-.16.67-.87V36.78a47.88,47.88,0,0,0-5,1.66Z"/><path d="M34.94,74.11c0-.3.06-.6.07-.9,0-.69.16-2.22-.25-2.85s-1.68-.42-2.33-.41a29.55,29.55,0,0,0-3.74.31,18.58,18.58,0,0,0-6.23,2c-.65.36-.91.63-.36,1.25a9.64,9.64,0,0,1,.83,1A4.19,4.19,0,0,1,23.5,77,46.13,46.13,0,0,1,22,86.66c-1.18,5.39-2.65,10.72-3.93,16.08-.8,3.34-1.59,6.7-2.1,10.1a5.29,5.29,0,0,0-.2,1.62c.09.35.18.32.59.38a8.84,8.84,0,0,0,1.45,0,46.09,46.09,0,0,0,6.1-.51c1-.17,2.65-.3,3.23-1.3a10.81,10.81,0,0,0,.89-3.45c.76-4.32,1.27-8.68,2.06-13C31,91.77,32.25,87,33.35,82.15A80.29,80.29,0,0,0,34.94,74.11Z"/><path d="M88.78,81.37a5.56,5.56,0,0,0-1.25-3c-1.66-2-4.06-1.35-6-.13a16.76,16.76,0,0,0-5.32,5.45A19.55,19.55,0,0,0,75.88,80c-.13-.65-.21-1.31-.87-1.56-1.3-.49-3.18,0-4.48.3a51.11,51.11,0,0,0-4.95,1.34c-.7.22-1.39.45-2.07.7-.32.12-.5.15-.65.4-.3.51.12,1,.41,1.36a8.41,8.41,0,0,1,2.17,4.57c-.09-.16-.16-.09-.52-.07l-.79,0c-.95,0-1.9,0-2.84.16a43.41,43.41,0,0,0-6.75,1.4q-1.09.31-2.16.66a5.32,5.32,0,0,1-.74.25c-.6.09-.24.09-.68-.15-.75-.4-1.39-1.06-2.16-1.47a15.31,15.31,0,0,0-5.88-1.56,26.93,26.93,0,0,0,4-1.91c4.71-2.78,8.36-7.09,8-12.83-.27-4.92-3.77-7.77-8.26-9.05-5.46-1.55-11.45-1.27-17-.58a40.33,40.33,0,0,0-15.22,4.67c-4.17,2.4-8,6-8.4,11.07a9.66,9.66,0,0,0,1.86,7,10.37,10.37,0,0,0,3.23,2.65,5.8,5.8,0,0,0,2,.73c.47,0,.46.07.73-.37s.36-.6.52-.92c.39-.76,1.62-3.41,1-4-.17-.17-.77-.26-1-.36a8.66,8.66,0,0,1-.86-.45,7.31,7.31,0,0,1-1.66-1.26c-1.53-1.64-1.25-4.12-.18-5.93a15.37,15.37,0,0,1,5.94-5.16,26.88,26.88,0,0,1,7.29-2.66A41.13,41.13,0,0,1,33.68,66a15,15,0,0,1,6.93,1.28c4.7,2.47,3.79,9.57,1.18,13.27-1.39,2-3.12,3.54-5.57,3.87-.5.07-.57-.06-.79.43a3.49,3.49,0,0,0-.15.72,9,9,0,0,0-.14,2,2.59,2.59,0,0,0,.1.9c.25.49-.06.17.31.27a11.6,11.6,0,0,0,1.61,0,6,6,0,0,1,4.45,2.64,4.24,4.24,0,0,1,.72,1.31c.11.55.13.42-.42.74l-.58.35a27,27,0,0,0-3,2.13c-3.37,2.78-6.47,6.59-7.07,11-.51,3.82.72,7.78,4.45,9.43s8.13.47,11.28-1.75a18.28,18.28,0,0,0,7-9.94,20.81,20.81,0,0,0,.71-6.36,16.56,16.56,0,0,0-.56-3.7,5.56,5.56,0,0,1-.25-.83c-.06-.61-.17-.16.18-.44a4.9,4.9,0,0,1,1.51-.49,28,28,0,0,1,6.85-.92c.48,0,1,0,1.44,0a2.93,2.93,0,0,0,.83,0C64,96,63,100,62.29,104.07c-.26,1.39-.52,2.79-.66,4.2a14.74,14.74,0,0,0,0,1.73,5,5,0,0,0,.07,1.34c.14.43,0,.42.57.37a41.66,41.66,0,0,0,8.54-1.49,4.57,4.57,0,0,0,1.19-.45c.28-.2.19-.09.25-.41a4.49,4.49,0,0,0,0-.89,24.76,24.76,0,0,1,.06-2.56,104.82,104.82,0,0,1,2-12.25q.44-2.2.91-4.39A3.77,3.77,0,0,1,76,87.14a9.31,9.31,0,0,1,1.56-1.31c.39-.26.89-.69,1.36-.54s.72.65.94.95c.43.57.79,1.2,1.19,1.79.09.14.33.65.51.71.39.12,1.43-.53,1.78-.72a13.39,13.39,0,0,0,1.81-1.21,17.31,17.31,0,0,0,2.55-2.34A3.68,3.68,0,0,0,88.78,81.37ZM42.41,106.15c-.58,1.7-1.68,4.75-3.86,4.89-3.47.23-2.68-4.84-1.79-6.7a14.24,14.24,0,0,1,6.69-6.46A21.58,21.58,0,0,1,42.41,106.15Z"/><path d="M132,71.52a44,44,0,0,0,1.22-8.9c0-.66.25-2.66-.44-3-.54-.28-1.82.24-2.33.38-1.29.36-2.56.8-3.81,1.27a22.38,22.38,0,0,0-3.94,1.66c-.48.3-.35.47-.33,1.06l0,1c0,.79,0,1.57,0,2.36q-.06,1.41-.2,2.81-.06.64-.14,1.28a5.2,5.2,0,0,1-.2,1.49c-.19.18-1.12.16-1.38.19l-1,.15-1.06.15a3.67,3.67,0,0,0-.68.1c-.38.15-.23-.08-.43.3a6.15,6.15,0,0,0-.16,2.37,13.12,13.12,0,0,0,.14,2.14c1.3-.4,2.63-.69,4-1-.23,1.39-.5,2.77-.78,4.15a39.43,39.43,0,0,1-6.78,1.95c0-3.13-.12-9.33-4.29-9.95a5.74,5.74,0,0,0-2.68.31c-.51.18-1,.56-1.45.72a9.07,9.07,0,0,1-1.9.15,16.89,16.89,0,0,0-6.47,1.84c-4.23,2.21-7.12,6.34-8.77,10.73S85.79,97.32,87.24,102a9.43,9.43,0,0,0,3.27,4.89,9,9,0,0,0,6.57,1.38c6.75-.89,11-6.35,13.62-12.2a35.71,35.71,0,0,0,1.82-5q.32-1.15.57-2.33c.06-.29.08-1.16.27-1.37s.88-.3,1.12-.38a50.16,50.16,0,0,0,5-1.95l.18-.09c-.24,1.11-.48,2.21-.71,3.32a71.78,71.78,0,0,0-1.62,9.63c-.2,2.86.21,6.07,3.54,6.78,2.69.58,5.74-.82,8-2.17a29.63,29.63,0,0,0,4.07-3q.57-.49,1.12-1a3.56,3.56,0,0,0,.57-.53c.25-.43.3,0,.1-.58a11.43,11.43,0,0,0-1.11-1.88,30.22,30.22,0,0,1-4.12,2.25c-1.1.45-1.48-.12-1.56-1.26a22.2,22.2,0,0,1,.34-4.46c.33-2.44.75-4.86,1.18-7.28q.42-2.32.87-4.64.26-1.34.52-2.69a10,10,0,0,1,.3-1.51c.19-.51.29-.42.88-.5.88-.12,1.76-.24,2.65-.32a24,24,0,0,0,2.64-.17c.5-.11.42-.08.61-.55l.2-.52c.16-.43.3-.86.43-1.3a10.46,10.46,0,0,0,.38-2ZM106.4,96.91c-1.19,2.06-2.92,4.29-5.44,4.62-4.72.63-4.06-7.52-3.84-10.19a28.09,28.09,0,0,1,2.11-8.65c.56-1.31,2.08-5.11,4.11-4.38-1.11,2.37-2.18,6-.42,8.32,1.52,2,4.59,1.91,6.83,1.6A29.66,29.66,0,0,1,106.4,96.91Z"/><path d="M141.79,95.29l.49-11.71.25-6a6.3,6.3,0,0,0-1.75-5.09c-.15-.16-.37-.32-.51-.5-.38-.48-.2-.11-.23-.56,0-.66.39-.7.91-.9.87-.33,1.75-.65,2.64-.94a19.08,19.08,0,0,1,6.06-1.28c3.89.1,3.77,4.9,3.57,7.65-.29,3.95-1.13,7.82-1.58,11.74-.18,1.59-1.29,7.34,1.74,6.42a6.47,6.47,0,0,0,2-1.13c.65-.51,1.91-1.4,2.2-2.18a14.45,14.45,0,0,0,.33-2.93c.49-3.84,1.12-7.68,1.38-11.55a29.24,29.24,0,0,0,0-4.85c0-.4-.09-.8-.15-1.2-.11-.65-.3-.75.32-1.06,1-.51,2-1,3.09-1.45a18.48,18.48,0,0,1,5.17-1.67,2,2,0,0,1,1.39.13c.41.32.51,1.23.59,1.7.57,3.45-.16,7.2-.75,10.59a69.82,69.82,0,0,0-1.53,10.73c0,.91-.13,3,1.25,3S171.37,91,172.3,90A24.79,24.79,0,0,0,176.15,85c.71-1.19,1.83-2.95,1.81-4.4,0-.55-.19-.64-.61-1.06l-1-1-1.93-1.93a6.6,6.6,0,0,1-1.12-1.12c-.23-.41,0-1.1,0-1.58a17.58,17.58,0,0,1,.8-3.07,15.63,15.63,0,0,1,2.68-4.92c.24-.27.49-.52.74-.78a1.35,1.35,0,0,1,1.24-.49,6.26,6.26,0,0,1,2.63.41c3.74,1.57,2.91,6.44,2.28,9.6a38.91,38.91,0,0,1-4.51,11.73,33.54,33.54,0,0,1-7.92,9.53c-2.63,2.09-6.75,4.27-10.17,2.91a5.69,5.69,0,0,1-3.3-3.89c-2.45,2.77-5.55,5.56-9.3,6.27a5.7,5.7,0,0,1-4.65-.75A6.48,6.48,0,0,1,141.79,95.29Z"/><path d="M184.85,83.31a21.27,21.27,0,0,1,6.27-15.64c4-3.92,10.25-6.8,16-5.18a6.84,6.84,0,0,1,5.17,5.26A10.35,10.35,0,0,1,209.87,76c-2.12,2.56-5.15,4.08-8.15,5.39a30.75,30.75,0,0,1-4.21,1.5,14.07,14.07,0,0,0-2,.46c-.4.18-.32.21-.26.68s.1.75.17,1.13c.45,2.27,1.71,4.31,4.2,4.53,3.38.3,6.49-2,8.89-4.1a13,13,0,0,1,1.51,1.9c.22.43.18.35-.14.73s-.46.49-.7.72A31.29,31.29,0,0,1,205,92.26a20.22,20.22,0,0,1-9.89,3.32,8.84,8.84,0,0,1-7.83-3.36C185.35,89.7,184.85,86.39,184.85,83.31ZM201,76.26a10.31,10.31,0,0,0,2.14-7.17c-.1-1.81-.94-3.61-3-2.88s-3,3.32-3.57,5.23a29.56,29.56,0,0,0-1.36,8.45A11.25,11.25,0,0,0,201,76.26Z"/><path d="M222.28,45.16a8.54,8.54,0,0,0-.43-3.36A35.6,35.6,0,0,1,230,39.32c.65-.09,2-.34,2.54.21s.51,2.5.5,3.32a61.36,61.36,0,0,1-1.68,11.2c-.72,3.57-1.52,7.12-2.35,10.67,2.74-2.1,6-4.16,9.5-4.5a5.71,5.71,0,0,1,4.32,1.08,6.36,6.36,0,0,1,1.93,4.59c.31,6.29-3.12,12.2-3.3,18.44,0,.69-.23,2.66.84,2.54a6.14,6.14,0,0,0,1.79-.77l1.26-.65a3.41,3.41,0,0,1,.56-.28c.12,0,.4.77.45.88l.53,1c.27.53.36.57-.09,1a21.62,21.62,0,0,1-1.93,1.53,26.82,26.82,0,0,1-4.68,2.51c-3,1.23-7.17,1.62-8.74-1.9-1.14-2.56-.26-5.89.26-8.51.71-3.58,1.68-7.1,2.25-10.71a5.76,5.76,0,0,0,0-3c-.61-1.35-2.57-.65-3.59-.25-.73.28-2.13.76-2.48,1.43a13.77,13.77,0,0,0-.7,3.17q-.62,2.84-1.19,5.68c-.59,2.94-1.15,5.9-1.58,8.87-.14,1-.27,2-.36,3.06,0,.38-.06.76-.07,1.14,0,.53.05.63-.44.84a27.65,27.65,0,0,1-7,1.62c-.64.09-2,.43-2.61.07s-.32-1.78-.29-2.44a33,33,0,0,1,.65-4.55c1.27-6.86,3-13.63,4.49-20.44a142.13,142.13,0,0,0,3.29-18.32C222.23,46.95,222.28,46.06,222.28,45.16Z"/><path class="cls-4" d="M242.67,32.28q0,12.1,0,24.2c6.2,0,11.25-3.2,17-5.07a24.2,24.2,0,0,1,4.38-1,21.63,21.63,0,0,1,2.36-.18c.63,0,.5-.2.5-.79V47.71q0-5,0-9.92,0-5.9,0-11.8C258.23,26,251.3,32.28,242.67,32.28Zm19.16,8.53c-1.13.29-2.24.63-3.33,1-.29.1-1.55.38-1.71.64s0,1.5,0,1.95V46.8c0,.57.07.59-.36.85a23.19,23.19,0,0,1-3.67,1.42V44a47.87,47.87,0,0,1-5,1.66V42.35c0-.71,0-.68.67-.87s1.33-.38,2-.61a7.61,7.61,0,0,0,2.21-.81c.39-.35.17-1.7.17-2.3V35.67c0-.73,0-.72.69-1l.9-.35,2.44-.94v5a47.85,47.85,0,0,1,5-1.66Z"/><path class="cls-3" d="M256.78,33.4l-2.44.94-.9.35c-.68.26-.69.25-.69,1v2.09c0,.6.21,2-.17,2.3a7.61,7.61,0,0,1-2.21.81c-.65.22-1.31.42-2,.61s-.67.16-.67.87v3.34a47.87,47.87,0,0,0,5-1.66v5l2.44-.94.9-.35c.68-.26.69-.25.69-1V44.71c0-.6-.21-2,.17-2.3a7.61,7.61,0,0,1,2.21-.81c.65-.22,1.31-.42,2-.61s.67-.16.67-.87V36.78a47.85,47.85,0,0,0-5,1.66Z"/></g></g></svg>