<svg xmlns="http://www.w3.org/2000/svg" width="69" height="48" viewBox="0 0 69 48">
    <g fill="none" fill-rule="evenodd" transform="translate(2 1)">
        <path stroke="#000" stroke-width="2" d="M20.685 35.213C24.032 41.261 31.969 45.4 41.012 45.4c6.46 0 10.635-1.124 14.433-4.013.933-.71 1.88-.466 6.307 1.038l.01.003c1.84.625 2.609.872 3.395 1.07.14.035.27.065.392.091l-.087-.153c-.368-.636-.807-1.308-1.752-2.708l-.027-.04c-2.804-4.151-2.953-4.404-2.418-5.346 1.149-2.023 1.747-4.202 1.747-6.442 0-6.988-5.9-13.182-14.526-15.52.287 1.15.433 2.328.433 3.52 0 10.286-10.796 18.5-24 18.5a43.7 43.7 0 0 1-4.234-.187z"/>
        <path stroke="#000" stroke-width="2" d="M25.907 35c12.703 0 23-7.835 23-17.5S38.61 0 25.907 0s-23 7.835-23 17.5c0 2.464.67 4.809 1.877 6.935.49.863-5.39 7.899-4.733 8.682.903 1.075 9.637-3.232 10.818-2.334C15.03 33.949 19.557 35 25.907 35z"/>
        <rect width="21" height="2" x="15" y="14" fill="#000" rx="1"/>
        <rect width="15" height="2" x="15" y="20" fill="#000" rx="1"/>
    </g>
</svg>
