<svg xmlns="http://www.w3.org/2000/svg" width="47" height="57" viewBox="0 0 47 57">
    <path fill="#000" fill-rule="evenodd" d="M36.968 24.051v-2.808c3.809-2.266 5.658-6.697 4.847-11.724C41.013 4.547 36.942.665 31.917.08a11.505 11.505 0 0 0-4.011.233 18.865 18.865 0 0 1-8.761 0 11.52 11.52 0 0 0-4.76-.122 11.332 11.332 0 0 0-9.141 9.276c-.783 4.727 1.105 9.223 4.831 11.592v2.989C4.441 24.527 0 29.258 0 35.014V53.001h2c0 2.206 1.794 4 4 4s4-1.794 4-4h27c0 2.206 1.794 4 4 4s4-1.794 4-4h2V35.014c0-5.741-4.418-10.464-10.032-10.963zM7.217 9.795c.632-3.808 3.726-6.947 7.523-7.634a9.504 9.504 0 0 1 3.938.099 20.88 20.88 0 0 0 9.694 0 9.44 9.44 0 0 1 3.312-.193c4.143.483 7.496 3.679 8.156 7.771.707 4.377-.953 8.182-4.331 9.929a1.002 1.002 0 0 0-.541.889v3.346H12.075v-3.385c0-.434-.233-.836-.608-1.051-3.305-1.904-4.933-5.648-4.25-9.771zM6 55.002c-1.103 0-2-.897-2-2h4c0 1.102-.897 2-2 2zm35 0c-1.103 0-2-.897-2-2h4c0 1.102-.897 2-2 2zm4-4H2v-3h43v3zm-43-5V35.014c0-4.97 4.043-9.013 9.013-9.013h24.976c4.97 0 9.013 4.043 9.013 9.013v10.987H2v.001zm11-14h-1v-2a1 1 0 1 0-2 0v2H9c-1.654 0-3 1.346-3 3s1.346 3 3 3h1v4a1 1 0 1 0 2 0v-4h1c1.654 0 3-1.346 3-3s-1.345-3-3-3zm0 4H9a1 1 0 0 1 0-2h4a1 1 0 0 1 0 2zm-.293-22.293l6.5-6.5a.999.999 0 1 0-1.414-1.414l-6.5 6.5a.999.999 0 1 0 1.414 1.414zm.586 6a.997.997 0 0 0 1.414 0l14-14a.999.999 0 1 0-1.414-1.414l-14 14a1 1 0 0 0 0 1.414zm5 3a.997.997 0 0 0 1.414 0l15-15a.999.999 0 1 0-1.414-1.414l-15 15a1 1 0 0 0 0 1.414zm15.5-8.914l-7.5 7.5a.999.999 0 1 0 1.414 1.414l7.5-7.5a.999.999 0 1 0-1.414-1.414z"/>
</svg>
